<svg width="52" height="52" viewBox="0 0 52 52" fill="none" xmlns="http://www.w3.org/2000/svg">
<g clip-path="url(#clip0_2989_89)">
<path d="M34 36H18C17.7348 36 17.4804 35.8946 17.2929 35.7071C17.1054 35.5196 17 35.2652 17 35V17C17 16.7348 17.1054 16.4804 17.2929 16.2929C17.4804 16.1054 17.7348 16 18 16H34C34.2652 16 34.5196 16.1054 34.7071 16.2929C34.8946 16.4804 35 16.7348 35 17V35C35 35.2652 34.8946 35.5196 34.7071 35.7071C34.5196 35.8946 34.2652 36 34 36ZM33 34V18H19V34H33ZM23 20V22C23 22.7956 23.3161 23.5587 23.8787 24.1213C24.4413 24.6839 25.2044 25 26 25C26.7956 25 27.5587 24.6839 28.1213 24.1213C28.6839 23.5587 29 22.7956 29 22V20H31V22C31 23.3261 30.4732 24.5979 29.5355 25.5355C28.5979 26.4732 27.3261 27 26 27C24.6739 27 23.4021 26.4732 22.4645 25.5355C21.5268 24.5979 21 23.3261 21 22V20H23Z" fill="white"/>
</g>
<defs>
<clipPath id="clip0_2989_89">
<rect width="28" height="28" fill="white" transform="translate(12 12)"/>
</clipPath>
</defs>
</svg>
